<?xml version="1.0" standalone="no"?>
<!DOCTYPE svg PUBLIC "-//W3C//DTD SVG 20010904//EN"
 "http://www.w3.org/TR/2001/REC-SVG-20010904/DTD/svg10.dtd">
<svg version="1.0" xmlns="http://www.w3.org/2000/svg"
 width="280.000000pt" height="280.000000pt" viewBox="0 0 280.000000 280.000000"
 preserveAspectRatio="xMidYMid meet">
<metadata>
Created by potrace 1.11, written by Peter Selinger 2001-2013
</metadata>
<g transform="translate(0.000000,280.000000) scale(0.100000,-0.100000)"
fill="#000000" stroke="none">
<path d="M817 2154 c-1 -1 -63 -4 -137 -8 -407 -19 -420 -20 -432 -39 -12 -19
-9 -43 6 -56 10 -9 44 -10 113 -6 137 8 238 13 383 20 69 3 148 8 175 10 l50
4 41 -62 41 -63 -53 2 c-38 1 -54 -2 -58 -13 -3 -8 -10 -11 -16 -8 -5 3 -10 2
-10 -3 0 -5 35 -9 79 -8 l79 1 34 -50 c154 -227 180 -267 175 -272 -4 -3 -36
-6 -71 -6 -42 -1 -67 -6 -70 -14 -3 -6 -14 -10 -26 -8 -11 2 -20 -1 -20 -6 0
-15 63 -7 76 10 9 11 12 12 19 1 5 -9 4 -11 -3 -6 -7 4 -12 3 -12 -2 0 -15 64
-10 76 6 9 12 13 12 19 2 5 -9 4 -11 -3 -6 -7 4 -12 3 -12 -2 0 -5 14 -9 31
-10 17 0 32 -2 33 -4 101 -143 114 -165 101 -174 -7 -5 -48 -40 -89 -78 l-76
-69 -75 0 c-54 0 -76 -4 -80 -14 -2 -8 -9 -11 -15 -8 -5 3 -10 1 -10 -5 0 -15
42 -9 56 9 9 11 14 10 29 -5 13 -13 20 -15 22 -7 4 10 7 10 17 0 11 -10 9 -15
-8 -30 -11 -10 -66 -60 -120 -110 -55 -51 -104 -96 -111 -102 -6 -5 -29 -27
-52 -48 -22 -21 -46 -39 -54 -40 -8 -2 -20 -7 -28 -11 -10 -6 -12 -5 -7 2 4 7
3 12 -2 12 -6 0 -13 -7 -16 -16 -3 -8 -10 -12 -16 -9 -5 3 -10 1 -10 -5 0 -8
9 -10 28 -5 l27 6 -34 -35 c-19 -20 -40 -36 -45 -36 -6 1 -27 14 -46 30 -29
25 -31 30 -15 31 11 1 24 1 28 0 5 -1 5 3 2 9 -4 7 2 6 15 -2 18 -11 22 -11
31 5 6 9 14 15 20 12 5 -4 9 -2 9 3 0 5 -38 9 -83 9 l-84 -1 -74 60 c-40 32
-83 66 -94 76 -165 135 -177 142 -203 116 -7 -7 -12 -20 -12 -30 0 -20 -1 -19
141 -136 65 -53 94 -83 89 -92 -6 -10 -9 -9 -13 1 -5 11 -8 10 -17 -4 -6 -9
-15 -15 -21 -12 -5 4 -9 2 -9 -2 0 -5 26 -9 59 -9 58 -1 59 -2 166 -88 59 -47
111 -86 115 -86 4 0 34 24 66 54 33 30 77 70 98 90 22 19 43 33 48 30 4 -3 8
1 8 8 0 9 3 9 8 2 9 -13 112 -16 112 -3 0 6 -5 7 -10 4 -6 -3 -12 0 -15 7 -6
16 -55 22 -55 7 0 -5 4 -8 8 -5 4 2 14 0 22 -5 11 -7 9 -8 -8 -6 -41 6 -44 29
-9 61 73 66 221 202 234 215 52 51 95 79 113 74 13 -3 20 0 20 8 0 11 2 11 10
-1 9 -13 12 -13 21 3 6 9 14 15 20 12 5 -4 9 -1 9 6 0 7 -8 9 -21 6 -45 -12
-47 4 -4 44 23 21 45 39 47 39 6 0 58 -76 58 -84 0 -2 -9 -2 -20 1 -12 3 -20
0 -20 -6 0 -7 5 -9 10 -6 6 3 13 -1 16 -9 3 -9 14 -16 24 -16 12 0 42 -35 87
-103 37 -56 71 -106 75 -112 5 -5 16 -21 26 -33 l18 -24 269 137 270 137 117
1 c64 1 114 5 111 10 -3 5 -12 6 -22 2 -13 -5 -13 -4 -4 6 10 10 16 9 30 -2
22 -19 73 -23 73 -6 0 8 4 7 10 -3 9 -13 12 -13 21 3 6 9 14 15 20 12 5 -4 9
-2 9 3 0 5 -18 9 -39 9 -32 0 -38 -3 -34 -16 4 -15 4 -15 -9 0 -10 12 -32 16
-88 17 -121 0 -121 0 -28 47 47 25 89 49 93 55 4 6 4 22 1 36 -10 39 -45 30
-216 -56 -128 -65 -168 -81 -209 -83 -28 -1 -51 -5 -51 -9 0 -5 5 -8 12 -8 6
0 8 -3 4 -7 -4 -5 -14 1 -22 12 -13 17 -16 18 -24 5 -6 -9 -10 -10 -10 -3 0 6
-9 11 -20 10 -11 -1 -20 -5 -20 -10 0 -5 8 -6 18 -2 14 5 15 4 4 -7 -11 -11
-16 -10 -28 7 -13 17 -16 18 -24 5 -5 -8 -10 -10 -10 -4 0 17 -128 14 -135 -3
-2 -8 -9 -11 -15 -8 -5 3 -10 2 -10 -3 0 -5 58 -9 135 -8 75 1 141 -1 146 -5
6 -3 -60 -41 -145 -84 -86 -43 -157 -77 -159 -74 -40 58 -107 159 -107 162 0
2 20 2 45 1 30 -2 45 1 45 9 0 7 4 6 10 -3 9 -13 12 -13 21 3 6 9 14 15 20 12
5 -4 9 -2 9 3 0 5 -18 9 -39 9 -32 0 -38 -3 -34 -16 3 -12 1 -11 -11 3 -14 18
-17 18 -28 4 -10 -12 -18 -13 -33 -7 -19 9 -18 9 3 5 12 -2 22 0 22 5 0 5 -13
9 -29 9 -24 0 -35 11 -76 72 l-48 72 84 79 c90 83 133 109 168 100 17 -4 20
-2 15 13 -5 17 -4 17 11 -1 15 -19 17 -19 26 -2 6 9 14 15 20 12 5 -4 9 -2 9
3 0 13 -73 11 -82 -2 -5 -7 -8 -5 -8 5 0 9 6 21 13 26 6 6 100 31 207 57 107
25 251 60 320 77 144 36 150 37 171 38 8 1 25 10 37 21 18 17 20 25 11 41 -5
11 -17 23 -25 26 -7 3 -130 -23 -271 -57 -500 -121 -482 -115 -527 -157 -22
-21 -43 -41 -46 -44 -25 -29 -258 -36 -284 -8 -11 11 -182 262 -210 307 -3 6
7 9 27 7 17 -1 35 2 39 8 3 6 18 11 31 11 14 1 23 -2 20 -7 -3 -5 -14 -7 -24
-4 -11 3 -19 1 -19 -4 0 -5 22 -8 50 -7 53 3 55 5 40 28 -9 13 -11 13 -20 0
-5 -9 -10 -10 -10 -3 0 16 -82 13 -95 -4 -7 -9 -14 -10 -25 -2 -13 9 -12 10 3
5 9 -3 17 -1 17 5 0 6 -10 10 -22 9 -13 -1 -27 -2 -33 -1 -5 1 -39 46 -75 101
l-65 100 -103 -2 c-57 -2 -104 -3 -105 -4z m232 -213 c10 -7 7 -9 -12 -8 -14
1 -23 5 -20 10 6 9 15 9 32 -2z m261 -361 c0 -5 -2 -10 -4 -10 -3 0 -8 5 -11
10 -3 6 -1 10 4 10 6 0 11 -4 11 -10z m153 -9 c-2 -6 2 -11 7 -11 6 0 10 6 10
13 0 8 3 8 9 -2 6 -10 20 -12 44 -8 20 3 46 3 58 0 21 -6 18 -10 -32 -55 -30
-26 -56 -48 -59 -48 -3 0 -19 21 -37 47 -30 43 -31 47 -15 60 16 14 16 14 -1
9 -11 -4 -16 -2 -12 5 9 13 31 5 28 -10z m82 9 c-3 -5 -14 -10 -23 -9 -14 0
-13 2 3 9 27 11 27 11 20 0z m65 0 c0 -5 -4 -10 -10 -10 -5 0 -10 5 -10 10 0
6 5 10 10 10 6 0 10 -4 10 -10z m-385 -360 c3 -5 1 -10 -4 -10 -6 0 -11 5 -11
10 0 6 2 10 4 10 3 0 8 -4 11 -10z m718 0 c-7 -8 -52 -7 -47 1 2 4 15 6 28 5
13 0 22 -3 19 -6z m448 -3 c-7 -7 -14 -8 -21 -1 -6 6 -2 10 12 11 16 2 18 -1
9 -10z m59 3 c0 -5 -4 -10 -10 -10 -5 0 -10 5 -10 10 0 6 5 10 10 10 6 0 10
-4 10 -10z m-1750 -364 c-7 -7 -13 -7 -20 0 -6 6 -3 10 10 10 13 0 16 -4 10
-10z"/>
<path d="M105 1942 c-3 -7 -5 -16 -5 -18 0 -7 25 1 32 10 8 12 58 15 51 3 -3
-5 -14 -7 -24 -4 -11 3 -19 1 -19 -4 0 -5 22 -8 50 -7 53 3 55 5 40 28 -9 13
-11 13 -20 0 -5 -8 -10 -10 -10 -4 0 18 -88 14 -95 -4z"/>
<path d="M240 1950 c0 -3 5 -12 10 -20 9 -13 12 -13 21 3 6 9 14 15 20 12 5
-4 9 -2 9 4 0 6 -13 9 -30 8 -16 -1 -30 -4 -30 -7z"/>
<path d="M305 1943 c-2 -8 -9 -11 -15 -8 -5 3 -10 2 -10 -3 0 -14 329 -10 334
5 3 6 14 10 26 8 11 -2 20 1 20 6 0 15 -63 7 -76 -10 -9 -11 -12 -12 -19 -1
-5 9 -4 11 3 6 7 -4 12 -3 12 2 0 15 -64 10 -76 -6 -9 -12 -13 -12 -28 4 -15
14 -19 15 -27 3 -5 -8 -9 -9 -9 -3 0 17 -128 14 -135 -3z m118 -3 c-7 -8 -52
-7 -47 1 2 4 15 6 28 5 13 0 22 -3 19 -6z"/>
<path d="M485 1950 c3 -5 8 -10 11 -10 2 0 4 5 4 10 0 6 -5 10 -11 10 -5 0 -7
-4 -4 -10z"/>
<path d="M666 1944 c-3 -7 -14 -11 -26 -9 -11 2 -20 0 -20 -5 0 -12 143 -8
152 4 8 12 40 17 32 5 -3 -5 -10 -7 -15 -4 -5 4 -9 2 -9 -3 0 -12 88 -13 96 0
4 6 10 5 15 -3 8 -11 11 -11 20 4 6 9 14 15 20 12 5 -4 9 -2 9 3 0 5 -25 9
-55 9 -30 0 -52 -4 -49 -9 4 -5 13 -7 23 -3 13 5 13 4 4 -6 -10 -10 -17 -9
-32 5 -22 20 -70 18 -87 -3 -9 -11 -12 -12 -19 -1 -5 9 -4 11 3 6 7 -4 12 -3
12 1 0 15 -68 12 -74 -3z"/>
<path d="M1360 1950 c0 -3 5 -12 10 -20 9 -13 12 -13 21 3 6 9 14 15 20 12 5
-4 9 -2 9 4 0 6 -13 9 -30 8 -16 -1 -30 -4 -30 -7z"/>
<path d="M1425 1943 c-2 -8 -9 -11 -15 -8 -5 3 -10 2 -10 -3 0 -5 63 -8 140
-8 77 0 140 3 140 6 0 3 -5 12 -10 20 -9 13 -11 13 -20 0 -6 -9 -10 -10 -10
-3 0 6 -9 11 -20 10 -11 -1 -20 -5 -20 -10 0 -5 8 -6 18 -2 14 5 15 4 4 -7
-11 -11 -16 -10 -28 7 -13 17 -16 18 -24 5 -5 -8 -10 -10 -10 -4 0 17 -128 14
-135 -3z m118 -3 c-7 -8 -52 -7 -47 1 2 4 15 6 28 5 13 0 22 -3 19 -6z"/>
<path d="M1680 1950 c0 -3 5 -12 10 -20 9 -13 12 -13 21 3 6 9 14 15 20 12 5
-4 9 -2 9 4 0 6 -13 9 -30 8 -16 -1 -30 -4 -30 -7z"/>
<path d="M1746 1943 c-3 -8 -10 -11 -16 -8 -5 3 -10 1 -10 -4 0 -16 52 -10 73
8 14 11 20 12 30 2 9 -10 9 -11 -4 -6 -10 4 -20 2 -23 -3 -3 -5 21 -9 59 -8
68 0 71 2 55 26 -8 13 -11 12 -24 -5 -12 -17 -17 -18 -28 -7 -11 11 -10 12 5
7 9 -4 17 -3 17 2 0 5 -29 9 -64 10 -48 0 -66 -4 -70 -14z"/>
<path d="M1920 1950 c0 -3 5 -12 10 -20 9 -13 12 -13 21 3 6 9 14 15 20 12 5
-4 9 -2 9 4 0 6 -13 9 -30 8 -16 -1 -30 -4 -30 -7z"/>
<path d="M1985 1942 c-2 -7 -9 -10 -15 -7 -5 3 -10 2 -10 -3 0 -5 27 -9 60 -8
33 0 60 5 60 9 0 5 -8 6 -17 2 -15 -5 -16 -4 -5 7 11 11 16 9 28 -7 14 -19 16
-19 25 -2 6 9 14 15 20 12 5 -4 9 -2 9 3 0 15 -149 10 -155 -6z"/>
<path d="M2145 1942 c-3 -7 -9 -10 -15 -7 -5 3 -10 2 -10 -3 0 -5 81 -8 180
-8 99 0 180 3 180 6 0 3 -5 12 -10 20 -9 13 -11 13 -20 0 -5 -8 -10 -10 -10
-4 0 6 -13 11 -30 12 -16 0 -30 -3 -30 -8 0 -4 11 -7 25 -6 13 2 22 -1 19 -5
-8 -13 -44 -5 -54 12 -8 11 -12 11 -23 -5 -11 -15 -16 -16 -22 -6 -5 9 -4 11
3 6 7 -4 12 -3 12 2 0 12 -63 11 -72 -1 -8 -13 -59 -16 -51 -4 3 5 14 7 24 4
11 -3 19 -1 19 3 0 15 -109 7 -115 -8z"/>
<path d="M2480 1950 c0 -3 5 -12 10 -20 9 -13 12 -13 21 3 6 9 14 15 20 12 5
-4 9 -2 9 4 0 6 -13 9 -30 8 -16 -1 -30 -4 -30 -7z"/>
<path d="M2545 1943 c-2 -8 -9 -11 -15 -8 -5 3 -10 2 -10 -3 0 -5 35 -9 77 -8
63 1 78 4 81 17 2 13 -8 16 -62 16 -46 -1 -67 -5 -71 -14z m118 -3 c-7 -8 -52
-7 -47 1 2 4 15 6 28 5 13 0 22 -3 19 -6z"/>
<path d="M106 1583 c-3 -8 -6 -16 -6 -17 0 -2 24 -3 53 -3 34 1 56 6 63 15 9
12 13 13 19 2 5 -9 4 -11 -3 -6 -7 4 -12 3 -12 -1 0 -15 68 -12 74 3 3 7 14
11 26 9 11 -2 20 0 20 5 0 15 -144 7 -156 -9 -9 -11 -12 -12 -19 -1 -5 9 -4
11 3 6 7 -4 12 -3 12 1 0 16 -68 12 -74 -4z"/>
<path d="M346 1583 c-3 -7 -14 -10 -26 -8 -11 2 -20 -1 -20 -6 0 -15 63 -7 76
10 9 11 12 12 19 1 5 -9 4 -11 -3 -6 -7 4 -12 3 -12 -1 0 -15 68 -12 74 3 3 7
14 11 26 9 11 -2 20 0 20 5 0 14 -149 7 -154 -7z"/>
<path d="M506 1583 c-3 -7 -14 -10 -26 -8 -11 2 -20 -1 -20 -6 0 -15 63 -7 76
10 9 11 12 12 19 1 5 -9 4 -11 -3 -6 -7 4 -12 3 -12 -1 0 -15 68 -12 74 3 3 7
14 11 26 9 11 -2 20 0 20 5 0 14 -149 7 -154 -7z"/>
<path d="M666 1583 c-3 -7 -14 -10 -26 -8 -11 2 -20 -1 -20 -6 0 -15 63 -7 76
10 9 11 12 12 19 1 5 -9 4 -11 -3 -6 -7 4 -12 3 -12 -1 0 -15 68 -12 74 3 3 7
14 11 26 9 11 -2 20 0 20 5 0 14 -149 7 -154 -7z"/>
<path d="M826 1583 c-3 -7 -14 -10 -26 -8 -11 2 -20 -1 -20 -6 0 -15 63 -7 76
10 9 11 12 12 19 1 5 -9 4 -11 -3 -6 -7 4 -12 3 -12 -1 0 -15 68 -12 74 3 3 7
14 11 26 9 11 -2 20 0 20 5 0 14 -149 7 -154 -7z"/>
<path d="M986 1583 c-3 -7 -14 -10 -26 -8 -11 2 -20 -1 -20 -6 0 -15 63 -7 76
10 9 11 12 12 19 1 5 -9 4 -11 -3 -6 -7 4 -12 3 -12 -1 0 -15 68 -12 74 3 3 7
14 11 26 9 11 -2 20 0 20 5 0 14 -149 7 -154 -7z"/>
<path d="M1886 1584 c-3 -8 -10 -12 -16 -9 -5 3 -10 2 -10 -4 0 -6 13 -9 30
-8 16 1 30 3 30 4 0 1 -3 8 -6 17 -8 20 -20 20 -28 0z"/>
<path d="M1920 1590 c0 -3 5 -12 10 -20 9 -13 11 -13 20 0 5 8 10 10 10 4 0
-17 128 -15 134 3 3 8 10 11 16 8 5 -3 10 -1 10 5 0 13 -42 10 -52 -4 -9 -13
-46 -18 -52 -7 -3 4 6 7 19 5 14 -1 25 2 25 6 0 5 -31 8 -70 7 -38 -1 -70 -4
-70 -7z m80 -4 c0 -2 -7 -7 -16 -10 -8 -3 -12 -2 -9 4 6 10 25 14 25 6z"/>
<path d="M2126 1584 c-3 -8 -10 -12 -16 -9 -5 3 -10 2 -10 -4 0 -6 13 -9 30
-8 16 1 30 3 30 4 0 1 -3 8 -6 17 -8 20 -20 20 -28 0z"/>
<path d="M2160 1590 c0 -3 5 -12 10 -20 9 -13 11 -13 20 0 5 8 10 10 10 4 0
-17 128 -14 135 3 2 8 9 11 15 8 5 -3 10 -2 10 3 0 5 -45 9 -100 8 -55 0 -100
-3 -100 -6z m103 -10 c-7 -8 -52 -7 -47 1 2 4 15 6 28 5 13 0 22 -3 19 -6z"/>
<path d="M2366 1584 c-3 -8 -10 -12 -16 -9 -5 3 -10 2 -10 -4 0 -6 13 -9 30
-8 16 1 30 3 30 4 0 1 -3 8 -6 17 -8 20 -20 20 -28 0z"/>
<path d="M2400 1590 c0 -3 5 -12 10 -20 9 -13 11 -13 20 0 5 8 10 10 10 4 0
-17 128 -14 135 3 2 8 9 11 15 8 5 -3 10 -2 10 3 0 5 -45 9 -100 8 -55 0 -100
-3 -100 -6z m103 -10 c-7 -8 -52 -7 -47 1 2 4 15 6 28 5 13 0 22 -3 19 -6z"/>
<path d="M2606 1584 c-3 -8 -10 -12 -16 -9 -5 3 -10 2 -10 -3 0 -5 23 -9 50
-9 28 1 50 5 50 10 0 5 -8 6 -17 3 -15 -5 -15 -4 1 9 15 11 16 15 5 15 -8 0
-20 -5 -27 -12 -9 -9 -12 -9 -12 0 0 17 -17 15 -24 -4z"/>
<path d="M101 1226 c-7 -9 -8 -17 -3 -20 6 -3 13 1 16 10 3 8 10 12 16 9 5 -3
10 -1 10 4 0 16 -26 13 -39 -3z"/>
<path d="M146 1224 c-3 -8 -10 -12 -16 -9 -5 3 -10 2 -10 -3 0 -5 18 -9 40 -9
23 0 40 5 40 11 0 6 5 4 10 -4 9 -13 12 -13 21 3 6 9 14 15 20 12 5 -4 9 -2 9
3 0 5 -18 9 -39 9 -32 0 -38 -3 -34 -16 4 -13 2 -13 -10 2 -18 21 -23 21 -31
1z"/>
<path d="M266 1223 c-3 -8 -10 -11 -16 -8 -5 3 -10 2 -10 -3 0 -5 36 -9 80 -9
50 1 80 5 80 11 0 6 5 4 10 -4 9 -13 12 -13 21 3 6 9 14 15 20 12 5 -4 9 -2 9
3 0 5 -18 9 -39 9 -32 0 -38 -3 -34 -16 3 -12 1 -11 -11 3 -15 19 -16 19 -29
1 -11 -14 -16 -15 -22 -5 -5 9 -4 11 3 6 7 -4 12 -3 12 1 0 16 -68 12 -74 -4z"/>
<path d="M466 1224 c-3 -8 -10 -12 -16 -9 -5 3 -10 2 -10 -3 0 -5 18 -9 40 -9
23 0 40 5 40 11 0 6 5 4 10 -4 9 -13 12 -13 21 3 6 9 14 15 20 12 5 -4 9 -2 9
3 0 5 -18 9 -39 9 -32 0 -38 -3 -34 -16 4 -13 2 -13 -10 2 -18 21 -23 21 -31
1z"/>
<path d="M585 1222 c-3 -7 -9 -10 -15 -7 -5 3 -10 1 -10 -4 0 -15 48 -10 54 6
3 6 14 10 26 8 11 -2 20 1 20 6 0 15 -69 7 -75 -9z"/>
<path d="M667 1225 c-4 -8 -15 -12 -27 -10 -11 2 -20 0 -20 -5 0 -5 23 -8 50
-8 28 1 50 6 50 12 0 6 5 4 10 -4 9 -13 12 -13 21 3 6 9 14 15 20 12 5 -4 9
-2 9 3 0 5 -18 9 -39 9 -32 0 -38 -3 -34 -16 4 -13 2 -13 -10 2 -17 21 -23 21
-30 2z"/>
<path d="M786 1224 c-3 -8 -10 -12 -16 -9 -5 3 -10 2 -10 -3 0 -5 18 -9 40 -9
23 0 40 5 40 11 0 6 5 4 10 -4 9 -13 12 -13 21 3 6 9 14 15 20 12 5 -4 9 -2 9
3 0 5 -18 9 -39 9 -32 0 -38 -3 -34 -16 4 -13 2 -13 -10 2 -18 21 -23 21 -31
1z"/>
<path d="M906 1223 c-3 -8 -10 -11 -16 -8 -5 3 -10 2 -10 -3 0 -5 36 -9 80 -9
50 1 80 5 80 11 0 6 5 4 10 -4 9 -13 12 -13 21 3 6 9 14 15 20 12 5 -4 9 -2 9
3 0 5 -18 9 -39 9 -32 0 -38 -3 -34 -16 3 -12 1 -11 -11 3 -15 19 -16 19 -29
1 -11 -14 -16 -15 -22 -5 -5 9 -4 11 3 6 7 -4 12 -3 12 1 0 16 -68 12 -74 -4z"/>
<path d="M1466 1224 c-3 -8 -10 -12 -16 -9 -5 3 -10 2 -10 -3 0 -5 18 -9 40
-9 22 0 40 4 40 9 0 5 -5 6 -10 3 -6 -3 -13 1 -16 9 -3 9 -10 16 -14 16 -4 0
-11 -7 -14 -16z"/>
<path d="M2666 1225 c-3 -9 -10 -13 -16 -10 -5 3 -10 1 -10 -4 0 -17 30 -13
37 4 3 9 3 18 0 21 -2 3 -7 -2 -11 -11z"/>
<path d="M1140 1210 c0 -5 5 -10 11 -10 5 0 7 5 4 10 -3 6 -8 10 -11 10 -2 0
-4 -4 -4 -10z"/>
<path d="M101 871 c-7 -5 -10 -14 -7 -20 10 -16 74 -10 81 7 3 7 9 10 15 7 5
-3 10 -1 10 5 0 13 -42 10 -52 -4 -3 -5 -17 -11 -30 -13 -17 -2 -19 -1 -8 6 8
5 18 7 22 5 4 -3 8 0 8 5 0 13 -20 14 -39 2z"/>
<path d="M206 864 c-3 -8 -10 -12 -16 -9 -5 3 -10 2 -10 -3 0 -5 18 -9 39 -9
32 0 38 3 34 16 -3 11 0 10 12 -4 15 -19 17 -19 26 -2 6 9 14 15 20 12 5 -4 9
-2 9 3 0 13 -73 11 -82 -2 -5 -7 -8 -7 -8 2 0 17 -17 15 -24 -4z"/>
<path d="M326 864 c-3 -8 -10 -12 -16 -9 -5 3 -10 2 -10 -3 0 -5 18 -9 39 -9
32 0 38 3 34 16 -3 11 0 10 12 -4 15 -19 17 -19 26 -2 6 9 14 15 20 12 5 -4 9
-2 9 3 0 13 -73 11 -82 -2 -5 -7 -8 -7 -8 2 0 17 -17 15 -24 -4z"/>
<path d="M1080 868 c0 -5 4 -7 9 -3 6 3 15 -3 20 -12 11 -17 11 -17 22 0 5 9
14 15 20 12 5 -4 9 -2 9 3 0 5 -18 9 -40 9 -22 0 -40 -4 -40 -9z"/>
<path d="M1166 864 c-3 -8 -10 -12 -16 -9 -5 3 -10 2 -10 -3 0 -5 18 -9 39 -9
32 0 38 3 34 16 -3 12 -1 11 11 -3 15 -19 17 -19 29 -2 13 17 14 17 31 0 15
-14 19 -15 27 -3 5 9 9 10 9 2 0 -6 9 -11 20 -10 11 1 20 5 20 10 0 5 -8 6
-17 2 -15 -5 -16 -4 -5 7 11 11 16 10 28 -7 13 -17 16 -18 24 -5 6 9 10 10 10
3 0 -6 9 -11 20 -10 11 1 20 5 20 10 0 5 -8 6 -17 2 -15 -5 -16 -4 -5 7 11 11
16 10 28 -7 13 -17 16 -18 24 -5 6 9 10 10 10 3 0 -6 9 -11 20 -10 11 1 20 5
20 10 0 5 -8 6 -17 2 -15 -5 -16 -4 -5 7 11 11 16 10 28 -7 13 -17 16 -18 24
-5 6 9 10 10 10 3 0 -6 9 -11 20 -10 11 1 20 5 20 10 0 5 -8 6 -17 2 -15 -5
-16 -4 -5 7 11 11 16 10 28 -7 13 -17 16 -18 24 -5 6 9 10 10 10 3 0 -6 9 -11
20 -10 11 1 20 5 20 10 0 5 -8 6 -17 2 -15 -5 -16 -4 -5 7 11 11 16 10 28 -7
13 -17 16 -18 24 -5 6 9 10 10 10 3 0 -6 9 -11 20 -10 11 1 20 5 20 10 0 5 -8
6 -17 2 -15 -5 -16 -4 -5 7 11 11 16 10 28 -7 13 -17 16 -18 24 -5 6 9 10 10
10 3 0 -6 9 -11 20 -10 11 1 20 5 20 10 0 5 -8 6 -17 2 -15 -5 -16 -4 -5 7 11
11 16 10 28 -7 13 -17 16 -18 24 -5 5 8 10 10 10 4 0 -6 13 -11 29 -12 24 0
29 3 25 16 -4 13 -2 12 11 -3 15 -19 17 -19 26 -2 6 9 14 15 20 12 5 -4 9 -2
9 3 0 13 -793 11 -802 -2 -5 -7 -8 -7 -8 2 0 17 -17 15 -24 -4z m754 2 c0 -2
-7 -7 -16 -10 -8 -3 -12 -2 -9 4 6 10 25 14 25 6z"/>
<path d="M2006 864 c-3 -8 -10 -12 -16 -9 -5 3 -10 2 -10 -3 0 -5 18 -9 39 -9
32 0 38 3 34 16 -3 11 0 10 12 -4 15 -19 17 -19 26 -2 6 9 14 15 20 12 5 -4 9
-2 9 3 0 13 -73 11 -82 -2 -5 -7 -8 -7 -8 2 0 17 -17 15 -24 -4z"/>
<path d="M2126 864 c-3 -8 -10 -12 -16 -9 -5 3 -10 2 -10 -3 0 -5 18 -9 39 -9
32 0 38 3 34 16 -3 11 0 10 12 -4 15 -19 17 -19 26 -2 6 9 14 15 20 12 5 -4 9
-2 9 3 0 13 -73 11 -82 -2 -5 -7 -8 -7 -8 2 0 17 -17 15 -24 -4z"/>
<path d="M2246 864 c-3 -8 -10 -12 -16 -9 -5 3 -10 2 -10 -3 0 -5 18 -9 39 -9
32 0 38 3 34 16 -3 11 0 10 12 -4 15 -19 17 -19 26 -2 6 9 14 15 20 12 5 -4 9
-2 9 3 0 13 -73 11 -82 -2 -5 -7 -8 -7 -8 2 0 17 -17 15 -24 -4z"/>
<path d="M2366 864 c-3 -8 -10 -12 -16 -9 -5 3 -10 2 -10 -3 0 -5 18 -9 39 -9
32 0 38 3 34 16 -3 11 0 10 12 -4 15 -19 17 -19 26 -2 6 9 14 15 20 12 5 -4 9
-2 9 3 0 13 -73 11 -82 -2 -5 -7 -8 -7 -8 2 0 17 -17 15 -24 -4z"/>
<path d="M2486 864 c-3 -8 -10 -12 -16 -9 -5 3 -10 2 -10 -3 0 -5 18 -9 39 -9
32 0 38 3 34 16 -3 11 0 10 12 -4 15 -19 17 -19 26 -2 6 9 14 15 20 12 5 -4 9
-2 9 3 0 13 -73 11 -82 -2 -5 -7 -8 -7 -8 2 0 17 -17 15 -24 -4z"/>
<path d="M2606 864 c-3 -8 -10 -12 -16 -9 -5 3 -10 2 -10 -3 0 -5 18 -9 39 -9
32 0 38 3 34 16 -3 12 -1 11 11 -3 14 -18 16 -18 16 -3 0 23 -29 34 -41 16 -6
-10 -9 -10 -9 -1 0 17 -17 15 -24 -4z"/>
<path d="M1260 850 c0 -5 5 -10 11 -10 5 0 7 5 4 10 -3 6 -8 10 -11 10 -2 0
-4 -4 -4 -10z"/>
</g>
</svg>
